<svg width="604" height="384" xmlns="http://www.w3.org/2000/svg" style="background-color: rgb(221, 221, 221); stroke-linecap: round; stroke-linejoin: round;" xmlns:inkscape="http://www.inkscape.org/namespaces/inkscape">
<g id="0-yellow" stroke="yellow" style="mix-blend-mode: multiply;" inkscape:groupmode="layer" inkscape:label="0-yellow"><title>Layer 0 is for yellow of ycmk</title>
<path fill="none" stroke-width="3" id="path_0" d=" M39 60.1 c0 -60, 90 -60, 90 0"></path>
<path fill="none" stroke-width="3" id="path_1" d=" M69 60.1 c0 40, 60 40, 60 0"></path>
<path fill="none" stroke-width="3" id="path_2" d=" M99 60.1 c0 -20, 30 -20, 30 0"></path>
<path fill="none" stroke-width="3" id="path_3" d=" M129 60.1 c0 48, 72 48, 72 0"></path>
<path fill="none" stroke-width="3" id="path_4" d=" M159 60.1 c0 -40, -60 -40, -60 0"></path>
<path fill="none" stroke-width="3" id="path_5" d=" M189 60.1 c0 40, -60 40, -60 0"></path>
<path fill="none" stroke-width="3" id="path_100" d=" M40 200 c0 -100, 150 -100, 150 0"></path>
<path fill="none" stroke-width="3" id="path_101" d=" M70 200 c0 20, -30 20, -30 0"></path>
<path fill="none" stroke-width="3" id="path_102" d=" M100 200 c0 -20, -30 -20, -30 0"></path>
<path fill="none" stroke-width="3" id="path_103" d=" M130 200 c0 20, -30 20, -30 0"></path>
<path fill="none" stroke-width="3" id="path_104" d=" M160 200 c0 -20, -30 -20, -30 0"></path>
<path fill="none" stroke-width="3" id="path_105" d=" M190 200 c0 20, -30 20, -30 0"></path>
<path fill="none" stroke-width="3" id="path_200" d=" M39 280 c0 -20, 30 -20, 30 0"></path>
<path fill="none" stroke-width="3" id="path_201" d=" M69 280 c0 20, 30 20, 30 0"></path>
<path fill="none" stroke-width="3" id="path_202" d=" M99 280 c0 -20, 30 -20, 30 0"></path>
<path fill="none" stroke-width="3" id="path_203" d=" M129 280 c0 20, 30 20, 30 0"></path>
<path fill="none" stroke-width="3" id="path_204" d=" M159 280 c0 -20, 30 -20, 30 0"></path>
<path fill="none" stroke-width="3" id="path_205" d=" M189 280 c0 100, -150 100, -150 0"></path>
<path fill="none" stroke-width="3" id="path_300" d=" M200 65 c0 -60, 90 -60, 90 0"></path>
<path fill="none" stroke-width="3" id="path_301" d=" M230 65 c0 20, -30 20, -30 0"></path>
<path fill="none" stroke-width="3" id="path_302" d=" M260 65 c0 -20, -30 -20, -30 0"></path>
<path fill="none" stroke-width="3" id="path_303" d=" M290 65 c0 20, 30 20, 30 0"></path>
<path fill="none" stroke-width="3" id="path_304" d=" M320 65 c0 -20, 30 -20, 30 0"></path>
<path fill="none" stroke-width="3" id="path_305" d=" M350 65 c0 60, -90 60, -90 0"></path>
<path fill="none" stroke-width="3" id="path_400" d=" M200 160 c0 -60, 90 -60, 90 0"></path>
<path fill="none" stroke-width="3" id="path_401" d=" M230 160 c0 60, 90 60, 90 0"></path>
<path fill="none" stroke-width="3" id="path_402" d=" M260 160 c0 -20, -30 -20, -30 0"></path>
<path fill="none" stroke-width="3" id="path_403" d=" M290 160 c0 20, -30 20, -30 0"></path>
<path fill="none" stroke-width="3" id="path_404" d=" M320 160 c0 -20, 30 -20, 30 0"></path>
<path fill="none" stroke-width="3" id="path_405" d=" M350 160 c0 100, -150 100, -150 0"></path>
<path fill="none" stroke-width="3" id="path_500" d=" M200 320 c0 -100, 150 -100, 150 0"></path>
<path fill="none" stroke-width="3" id="path_501" d=" M230 320 c0 20, 30 20, 30 0"></path>
<path fill="none" stroke-width="3" id="path_502" d=" M260 320 c0 -20, 30 -20, 30 0"></path>
<path fill="none" stroke-width="3" id="path_503" d=" M290 320 c0 60, -90 60, -90 0"></path>
<path fill="none" stroke-width="3" id="path_504" d=" M320 320 c0 -60, -90 -60, -90 0"></path>
<path fill="none" stroke-width="3" id="path_505" d=" M350 320 c0 20, -30 20, -30 0"></path>
<path fill="none" stroke-width="3" id="path_600" d=" M360 65 c0 -20, 30 -20, 30 0"></path>
<path fill="none" stroke-width="3" id="path_601" d=" M390 65 c0 20, 30 20, 30 0"></path>
<path fill="none" stroke-width="3" id="path_602" d=" M420 65 c0 -60, 90 -60, 90 0"></path>
<path fill="none" stroke-width="3" id="path_603" d=" M450 65 c0 60, -90 60, -90 0"></path>
<path fill="none" stroke-width="3" id="path_604" d=" M480 65 c0 -20, -30 -20, -30 0"></path>
<path fill="none" stroke-width="3" id="path_605" d=" M510 65 c0 20, -30 20, -30 0"></path>
<path fill="none" stroke-width="3" id="path_700" d=" M360 160 c0 -20, 30 -20, 30 0"></path>
<path fill="none" stroke-width="3" id="path_701" d=" M390 160 c0 20, -30 20, -30 0"></path>
<path fill="none" stroke-width="3" id="path_702" d=" M420 160 c0 -60, 90 -60, 90 0"></path>
<path fill="none" stroke-width="3" id="path_703" d=" M450 160 c0 20, -30 20, -30 0"></path>
<path fill="none" stroke-width="3" id="path_704" d=" M480 160 c0 -20, 30 -20, 30 0"></path>
<path fill="none" stroke-width="3" id="path_705" d=" M510 160 c0 100, -150 100, -150 0"></path>
<path fill="none" stroke-width="3" id="path_800" d=" M360 320 c0 -100, 150 -100, 150 0"></path>
<path fill="none" stroke-width="3" id="path_801" d=" M390 320 c0 20, -30 20, -30 0"></path>
<path fill="none" stroke-width="3" id="path_802" d=" M420 320 c0 -20, 30 -20, 30 0"></path>
<path fill="none" stroke-width="3" id="path_803" d=" M450 320 c0 20, 30 20, 30 0"></path>
<path fill="none" stroke-width="3" id="path_804" d=" M480 320 c0 -60, -90 -60, -90 0"></path>
<path fill="none" stroke-width="3" id="path_805" d=" M510 320 c0 60, -90 60, -90 0"></path></g>
<g id="1-magenta" stroke="magenta" style="mix-blend-mode: multiply;" inkscape:groupmode="layer" inkscape:label="1-magenta"><title>Layer 1 is for magenta of ycmk</title>
<path fill="none" stroke-width="3" id="path_0" d=" M38 60 c0 -40, 60 -40, 60 0"></path>
<path fill="none" stroke-width="3" id="path_1" d=" M68 60 c0 20, -30 20, -30 0"></path>
<path fill="none" stroke-width="3" id="path_2" d=" M98 60 c0 -60, 90 -60, 90 0"></path>
<path fill="none" stroke-width="3" id="path_3" d=" M128 60 c0 68.4, 102.6 68.4, 102.6 0"></path>
<path fill="none" stroke-width="3" id="path_4" d=" M158 60 c0 -60, -90 -60, -90 0"></path>
<path fill="none" stroke-width="3" id="path_5" d=" M188 60 c0 20, -30 20, -30 0"></path>
<path fill="none" stroke-width="3" id="path_100" d=" M40 200 c0 -100, 150 -100, 150 0"></path>
<path fill="none" stroke-width="3" id="path_101" d=" M70 200 c0 20, -30 20, -30 0"></path>
<path fill="none" stroke-width="3" id="path_102" d=" M100 200 c0 -20, -30 -20, -30 0"></path>
<path fill="none" stroke-width="3" id="path_103" d=" M130 200 c0 20, -30 20, -30 0"></path>
<path fill="none" stroke-width="3" id="path_104" d=" M160 200 c0 -20, -30 -20, -30 0"></path>
<path fill="none" stroke-width="3" id="path_105" d=" M190 200 c0 20, -30 20, -30 0"></path>
<path fill="none" stroke-width="3" id="path_200" d=" M40 277 c0 -20, 30 -20, 30 0"></path>
<path fill="none" stroke-width="3" id="path_201" d=" M70 277 c0 20, 30 20, 30 0"></path>
<path fill="none" stroke-width="3" id="path_202" d=" M100 277 c0 -20, 30 -20, 30 0"></path>
<path fill="none" stroke-width="3" id="path_203" d=" M130 277 c0 20, 30 20, 30 0"></path>
<path fill="none" stroke-width="3" id="path_204" d=" M160 277 c0 -20, 30 -20, 30 0"></path>
<path fill="none" stroke-width="3" id="path_205" d=" M190 277 c0 100, -150 100, -150 0"></path>
<path fill="none" stroke-width="3" id="path_300" d=" M200 65 c0 -60, 90 -60, 90 0"></path>
<path fill="none" stroke-width="3" id="path_301" d=" M230 65 c0 20, -30 20, -30 0"></path>
<path fill="none" stroke-width="3" id="path_302" d=" M260 65 c0 -20, -30 -20, -30 0"></path>
<path fill="none" stroke-width="3" id="path_303" d=" M290 65 c0 20, 30 20, 30 0"></path>
<path fill="none" stroke-width="3" id="path_304" d=" M320 65 c0 -20, 30 -20, 30 0"></path>
<path fill="none" stroke-width="3" id="path_305" d=" M350 65 c0 60, -90 60, -90 0"></path>
<path fill="none" stroke-width="3" id="path_400" d=" M200 160 c0 -60, 90 -60, 90 0"></path>
<path fill="none" stroke-width="3" id="path_401" d=" M230 160 c0 60, 90 60, 90 0"></path>
<path fill="none" stroke-width="3" id="path_402" d=" M260 160 c0 -20, -30 -20, -30 0"></path>
<path fill="none" stroke-width="3" id="path_403" d=" M290 160 c0 20, -30 20, -30 0"></path>
<path fill="none" stroke-width="3" id="path_404" d=" M320 160 c0 -20, 30 -20, 30 0"></path>
<path fill="none" stroke-width="3" id="path_405" d=" M350 160 c0 100, -150 100, -150 0"></path>
<path fill="none" stroke-width="3" id="path_500" d=" M200 320 c0 -100, 150 -100, 150 0"></path>
<path fill="none" stroke-width="3" id="path_501" d=" M230 320 c0 20, 30 20, 30 0"></path>
<path fill="none" stroke-width="3" id="path_502" d=" M260 320 c0 -20, 30 -20, 30 0"></path>
<path fill="none" stroke-width="3" id="path_503" d=" M290 320 c0 60, -90 60, -90 0"></path>
<path fill="none" stroke-width="3" id="path_504" d=" M320 320 c0 -60, -90 -60, -90 0"></path>
<path fill="none" stroke-width="3" id="path_505" d=" M350 320 c0 20, -30 20, -30 0"></path>
<path fill="none" stroke-width="3" id="path_600" d=" M360 65 c0 -20, 30 -20, 30 0"></path>
<path fill="none" stroke-width="3" id="path_601" d=" M390 65 c0 20, 30 20, 30 0"></path>
<path fill="none" stroke-width="3" id="path_602" d=" M420 65 c0 -60, 90 -60, 90 0"></path>
<path fill="none" stroke-width="3" id="path_603" d=" M450 65 c0 60, -90 60, -90 0"></path>
<path fill="none" stroke-width="3" id="path_604" d=" M480 65 c0 -20, -30 -20, -30 0"></path>
<path fill="none" stroke-width="3" id="path_605" d=" M510 65 c0 20, -30 20, -30 0"></path>
<path fill="none" stroke-width="3" id="path_700" d=" M360 160 c0 -20, 30 -20, 30 0"></path>
<path fill="none" stroke-width="3" id="path_701" d=" M390 160 c0 60, 90 60, 90 0"></path>
<path fill="none" stroke-width="3" id="path_702" d=" M420 160 c0 -60, 90 -60, 90 0"></path>
<path fill="none" stroke-width="3" id="path_703" d=" M450 160 c0 60, -90 60, -90 0"></path>
<path fill="none" stroke-width="3" id="path_704" d=" M480 160 c0 -20, -30 -20, -30 0"></path>
<path fill="none" stroke-width="3" id="path_705" d=" M510 160 c0 100, -150 100, -150 0"></path>
<path fill="none" stroke-width="3" id="path_800" d=" M360 320 c0 -100, 150 -100, 150 0"></path>
<path fill="none" stroke-width="3" id="path_801" d=" M390 320 c0 20, -30 20, -30 0"></path>
<path fill="none" stroke-width="3" id="path_802" d=" M420 320 c0 -20, 30 -20, 30 0"></path>
<path fill="none" stroke-width="3" id="path_803" d=" M450 320 c0 20, 30 20, 30 0"></path>
<path fill="none" stroke-width="3" id="path_804" d=" M480 320 c0 -60, -90 -60, -90 0"></path>
<path fill="none" stroke-width="3" id="path_805" d=" M510 320 c0 60, -90 60, -90 0"></path></g><g id="2-cyan" stroke="cyan" style="mix-blend-mode: multiply;" inkscape:groupmode="layer" inkscape:label="2-cyan"><title>Layer 2 is for cyan of ycmk</title>
<path fill="none" stroke-width="3" id="path_0" d=" M37 60.2 c0 -60, 90 -60, 90 0"></path>
<path fill="none" stroke-width="3" id="path_1" d=" M67 60.2 c0 20, 30 20, 30 0"></path>
<path fill="none" stroke-width="3" id="path_2" d=" M97 60.2 c0 -20, 30 -20, 30 0"></path>
<path fill="none" stroke-width="3" id="path_3" d=" M127 60.2 c0 60, -90 60, -90 0"></path>
<path fill="none" stroke-width="3" id="path_4" d=" M157 60.2 c0 -60, -90 -60, -90 0"></path>
<path fill="none" stroke-width="3" id="path_5" d=" M187 60.2 c0 20, -30 20, -30 0"></path>
<path fill="none" stroke-width="3" id="path_100" d=" M40 200 c0 -100, 150 -100, 150 0"></path>
<path fill="none" stroke-width="3" id="path_101" d=" M70 200 c0 20, -30 20, -30 0"></path>
<path fill="none" stroke-width="3" id="path_102" d=" M100 200 c0 -20, -30 -20, -30 0"></path>
<path fill="none" stroke-width="3" id="path_103" d=" M130 200 c0 20, -30 20, -30 0"></path>
<path fill="none" stroke-width="3" id="path_104" d=" M160 200 c0 -20, -30 -20, -30 0"></path>
<path fill="none" stroke-width="3" id="path_105" d=" M190 200 c0 20, -30 20, -30 0"></path>
<path fill="none" stroke-width="3" id="path_200" d=" M43 281 c0 -20, 30 -20, 30 0"></path>
<path fill="none" stroke-width="3" id="path_201" d=" M73 281 c0 20, 30 20, 30 0"></path>
<path fill="none" stroke-width="3" id="path_202" d=" M103 281 c0 -20, 30 -20, 30 0"></path>
<path fill="none" stroke-width="3" id="path_203" d=" M133 281 c0 20, 30 20, 30 0"></path>
<path fill="none" stroke-width="3" id="path_204" d=" M163 281 c0 -20, 30 -20, 30 0"></path>
<path fill="none" stroke-width="3" id="path_205" d=" M193 281 c0 100, -150 100, -150 0"></path>
<path fill="none" stroke-width="3" id="path_300" d=" M200 65 c0 -60, 90 -60, 90 0"></path>
<path fill="none" stroke-width="3" id="path_301" d=" M230 65 c0 20, -30 20, -30 0"></path>
<path fill="none" stroke-width="3" id="path_302" d=" M260 65 c0 -20, -30 -20, -30 0"></path>
<path fill="none" stroke-width="3" id="path_303" d=" M290 65 c0 20, 30 20, 30 0"></path>
<path fill="none" stroke-width="3" id="path_304" d=" M320 65 c0 -20, 30 -20, 30 0"></path>
<path fill="none" stroke-width="3" id="path_305" d=" M350 65 c0 60, -90 60, -90 0"></path>
<path fill="none" stroke-width="3" id="path_400" d=" M200 160 c0 -60, 90 -60, 90 0"></path>
<path fill="none" stroke-width="3" id="path_401" d=" M230 160 c0 60, 90 60, 90 0"></path>
<path fill="none" stroke-width="3" id="path_402" d=" M260 160 c0 -20, -30 -20, -30 0"></path>
<path fill="none" stroke-width="3" id="path_403" d=" M290 160 c0 20, -30 20, -30 0"></path>
<path fill="none" stroke-width="3" id="path_404" d=" M320 160 c0 -20, 30 -20, 30 0"></path>
<path fill="none" stroke-width="3" id="path_405" d=" M350 160 c0 100, -150 100, -150 0"></path>
<path fill="none" stroke-width="3" id="path_500" d=" M200 320 c0 -100, 150 -100, 150 0"></path>
<path fill="none" stroke-width="3" id="path_501" d=" M230 320 c0 20, 30 20, 30 0"></path>
<path fill="none" stroke-width="3" id="path_502" d=" M260 320 c0 -20, 30 -20, 30 0"></path>
<path fill="none" stroke-width="3" id="path_503" d=" M290 320 c0 60, -90 60, -90 0"></path>
<path fill="none" stroke-width="3" id="path_504" d=" M320 320 c0 -60, -90 -60, -90 0"></path>
<path fill="none" stroke-width="3" id="path_505" d=" M350 320 c0 20, -30 20, -30 0"></path>
<path fill="none" stroke-width="3" id="path_600" d=" M360 65 c0 -20, 30 -20, 30 0"></path>
<path fill="none" stroke-width="3" id="path_601" d=" M390 65 c0 20, 30 20, 30 0"></path>
<path fill="none" stroke-width="3" id="path_602" d=" M420 65 c0 -60, 90 -60, 90 0"></path>
<path fill="none" stroke-width="3" id="path_603" d=" M450 65 c0 60, -90 60, -90 0"></path>
<path fill="none" stroke-width="3" id="path_604" d=" M480 65 c0 -20, -30 -20, -30 0"></path>
<path fill="none" stroke-width="3" id="path_605" d=" M510 65 c0 20, -30 20, -30 0"></path>
<path fill="none" stroke-width="3" id="path_700" d=" M360 160 c0 -20, 30 -20, 30 0"></path>
<path fill="none" stroke-width="3" id="path_701" d=" M390 160 c0 60, 90 60, 90 0"></path>
<path fill="none" stroke-width="3" id="path_702" d=" M420 160 c0 -40, 60 -40, 60 0"></path>
<path fill="none" stroke-width="3" id="path_703" d=" M450 160 c0 20, -30 20, -30 0"></path>
<path fill="none" stroke-width="3" id="path_704" d=" M480 160 c0 -20, -30 -20, -30 0"></path>
<path fill="none" stroke-width="3" id="path_705" d=" M510 160 c0 100, -150 100, -150 0"></path>
<path fill="none" stroke-width="3" id="path_800" d=" M360 320 c0 -100, 150 -100, 150 0"></path>
<path fill="none" stroke-width="3" id="path_801" d=" M390 320 c0 20, -30 20, -30 0"></path>
<path fill="none" stroke-width="3" id="path_802" d=" M420 320 c0 -20, 30 -20, 30 0"></path>
<path fill="none" stroke-width="3" id="path_803" d=" M450 320 c0 20, 30 20, 30 0"></path>
<path fill="none" stroke-width="3" id="path_804" d=" M480 320 c0 -60, -90 -60, -90 0"></path>
<path fill="none" stroke-width="3" id="path_805" d=" M510 320 c0 60, -90 60, -90 0"></path></g></svg>