<svg width="604" height="384" xmlns="http://www.w3.org/2000/svg" style="background-color: rgb(221, 221, 221); stroke-linecap: round; stroke-linejoin: round;" xmlns:inkscape="http://www.inkscape.org/namespaces/inkscape"><g id="0-black" stroke="black" style="mix-blend-mode: multiply;" inkscape:groupmode="layer" inkscape:label="0-black"><title>Layer 0 is for black of ycmk</title><path fill="none" stroke-width="3" id="path_0" d=" M47 121 c0 -140, 210 -140, 210 0"></path><path fill="none" stroke-width="3" id="path_1" d=" M77 121 c0 20, 30 20, 30 0"></path><path fill="none" stroke-width="3" id="path_2" d=" M107 121 c0 -60, 90 -60, 90 0"></path><path fill="none" stroke-width="3" id="path_3" d=" M137 121 c0 60, 90 60, 90 0"></path><path fill="none" stroke-width="3" id="path_4" d=" M167 121 c0 -20, -30 -20, -30 0"></path><path fill="none" stroke-width="3" id="path_5" d=" M197 121 c0 100, -150 100, -150 0"></path><path fill="none" stroke-width="3" id="path_6" d=" M227 121 c0 -100, -150 -100, -150 0"></path><path fill="none" stroke-width="3" id="path_7" d=" M257 121 c0 60, -90 60, -90 0"></path><path fill="none" stroke-width="3" id="path_100" d=" M47 299 c0 -140, 210 -140, 210 0"></path><path fill="none" stroke-width="3" id="path_101" d=" M77 299 c0 20, -30 20, -30 0"></path><path fill="none" stroke-width="3" id="path_102" d=" M107 299 c0 -60, 90 -60, 90 0"></path><path fill="none" stroke-width="3" id="path_103" d=" M137 299 c0 20, 30 20, 30 0"></path><path fill="none" stroke-width="3" id="path_104" d=" M167 299 c0 -60, -90 -60, -90 0"></path><path fill="none" stroke-width="3" id="path_105" d=" M197 299 c0 20, 30 20, 30 0"></path><path fill="none" stroke-width="3" id="path_106" d=" M227 299 c0 -60, -90 -60, -90 0"></path><path fill="none" stroke-width="3" id="path_107" d=" M257 299 c0 100, -150 100, -150 0"></path><path fill="none" stroke-width="3" id="path_200" d=" M303 123 c0 -60, 90 -60, 90 0"></path><path fill="none" stroke-width="3" id="path_201" d=" M333 123 c0 60, 90 60, 90 0"></path><path fill="none" stroke-width="3" id="path_202" d=" M363 123 c0 -20, -30 -20, -30 0"></path><path fill="none" stroke-width="3" id="path_203" d=" M393 123 c0 60, 90 60, 90 0"></path><path fill="none" stroke-width="3" id="path_204" d=" M423 123 c0 -20, 30 -20, 30 0"></path><path fill="none" stroke-width="3" id="path_205" d=" M453 123 c0 100, -150 100, -150 0"></path><path fill="none" stroke-width="3" id="path_206" d=" M483 123 c0 -20, 30 -20, 30 0"></path><path fill="none" stroke-width="3" id="path_207" d=" M513 123 c0 100, -150 100, -150 0"></path><path fill="none" stroke-width="3" id="path_300" d=" M301 303 c0 -20, 30 -20, 30 0"></path><path fill="none" stroke-width="3" id="path_301" d=" M331 303 c0 60, 90 60, 90 0"></path><path fill="none" stroke-width="3" id="path_302" d=" M361 303 c0 -20, 30 -20, 30 0"></path><path fill="none" stroke-width="3" id="path_303" d=" M391 303 c0 60, -90 60, -90 0"></path><path fill="none" stroke-width="3" id="path_304" d=" M421 303 c0 -20, 30 -20, 30 0"></path><path fill="none" stroke-width="3" id="path_305" d=" M451 303 c0 20, 30 20, 30 0"></path><path fill="none" stroke-width="3" id="path_306" d=" M481 303 c0 -20, 30 -20, 30 0"></path><path fill="none" stroke-width="3" id="path_307" d=" M511 303 c0 100, -150 100, -150 0"></path></g></svg>